<svg viewBox="0 0 99 22" xmlns="http://www.w3.org/2000/svg" xmlns:xlink="http://www.w3.org/1999/xlink" width="99.000000" height="22.000000" fill="none" customFrame="#000000">
	<path id="Интерьер." d="M1.782 4.853L4.086 4.853L4.086 13.799L10.854 4.853L13.032 4.853L13.032 17.453L10.728 17.453L10.728 8.525L3.96 17.453L1.782 17.453L1.782 4.853ZM16.3128 7.841L18.5628 7.841L18.5628 11.747L23.4048 11.747L23.4048 7.841L25.6548 7.841L25.6548 17.453L23.4048 17.453L23.4048 13.655L18.5628 13.655L18.5628 17.453L16.3128 17.453L16.3128 7.841ZM36.2842 9.749L32.9182 9.749L32.9182 17.453L30.6682 17.453L30.6682 9.749L27.2842 9.749L27.2842 7.841L36.2842 7.841L36.2842 9.749ZM46.4944 12.701C46.4944 12.857 46.4824 13.079 46.4584 13.367L38.9164 13.367C39.0484 14.075 39.3904 14.639 39.9424 15.059C40.5064 15.467 41.2024 15.671 42.0304 15.671C43.0864 15.671 43.9564 15.323 44.6404 14.627L45.8464 16.013C45.4144 16.529 44.8684 16.919 44.2084 17.183C43.5484 17.447 42.8044 17.579 41.9764 17.579C40.9204 17.579 39.9904 17.369 39.1864 16.949C38.3824 16.529 37.7584 15.947 37.3144 15.203C36.8824 14.447 36.6664 13.595 36.6664 12.647C36.6664 11.711 36.8764 10.871 37.2964 10.127C37.7284 9.371 38.3224 8.783 39.0784 8.363C39.8344 7.943 40.6864 7.733 41.6344 7.733C42.5704 7.733 43.4044 7.943 44.1364 8.363C44.8804 8.771 45.4564 9.353 45.8644 10.109C46.2844 10.853 46.4944 11.717 46.4944 12.701ZM41.6344 9.533C40.9144 9.533 40.3024 9.749 39.7984 10.181C39.3064 10.601 39.0064 11.165 38.8984 11.873L44.3524 11.873C44.2564 11.177 43.9624 10.613 43.4704 10.181C42.9784 9.749 42.3664 9.533 41.6344 9.533ZM54.2834 7.733C55.2194 7.733 56.0534 7.937 56.7854 8.345C57.5294 8.753 58.1114 9.329 58.5314 10.073C58.9514 10.817 59.1614 11.675 59.1614 12.647C59.1614 13.619 58.9514 14.483 58.5314 15.239C58.1114 15.983 57.5294 16.559 56.7854 16.967C56.0534 17.375 55.2194 17.579 54.2834 17.579C52.9874 17.579 51.9614 17.147 51.2054 16.283L51.2054 20.945L48.9554 20.945L48.9554 7.841L51.0974 7.841L51.0974 9.101C51.4694 8.645 51.9254 8.303 52.4654 8.075C53.0174 7.847 53.6234 7.733 54.2834 7.733ZM54.0314 15.653C54.8594 15.653 55.5374 15.377 56.0654 14.825C56.6054 14.273 56.8754 13.547 56.8754 12.647C56.8754 11.747 56.6054 11.021 56.0654 10.469C55.5374 9.917 54.8594 9.641 54.0314 9.641C53.4914 9.641 53.0054 9.767 52.5734 10.019C52.1414 10.259 51.7994 10.607 51.5474 11.063C51.2954 11.519 51.1694 12.047 51.1694 12.647C51.1694 13.247 51.2954 13.775 51.5474 14.231C51.7994 14.687 52.1414 15.041 52.5734 15.293C53.0054 15.533 53.4914 15.653 54.0314 15.653ZM66.2247 11.009C67.4487 11.009 68.3847 11.285 69.0327 11.837C69.6927 12.389 70.0227 13.169 70.0227 14.177C70.0227 15.233 69.6627 16.049 68.9427 16.625C68.2227 17.201 67.2087 17.483 65.9007 17.471L61.4007 17.453L61.4007 7.841L63.6507 7.841L63.6507 10.991L66.2247 11.009ZM65.7027 15.815C66.3627 15.827 66.8667 15.689 67.2147 15.401C67.5627 15.113 67.7367 14.693 67.7367 14.141C67.7367 13.601 67.5687 13.205 67.2327 12.953C66.8967 12.701 66.3867 12.569 65.7027 12.557L63.6507 12.539L63.6507 15.797L65.7027 15.815ZM81.0003 12.701C81.0003 12.857 80.9883 13.079 80.9643 13.367L73.4223 13.367C73.5543 14.075 73.8963 14.639 74.4483 15.059C75.0123 15.467 75.7083 15.671 76.5363 15.671C77.5923 15.671 78.4623 15.323 79.1463 14.627L80.3523 16.013C79.9203 16.529 79.3743 16.919 78.7143 17.183C78.0543 17.447 77.3103 17.579 76.4823 17.579C75.4263 17.579 74.4963 17.369 73.6923 16.949C72.8883 16.529 72.2643 15.947 71.8203 15.203C71.3883 14.447 71.1723 13.595 71.1723 12.647C71.1723 11.711 71.3823 10.871 71.8023 10.127C72.2343 9.371 72.8283 8.783 73.5843 8.363C74.3403 7.943 75.1923 7.733 76.1403 7.733C77.0763 7.733 77.9103 7.943 78.6423 8.363C79.3863 8.771 79.9623 9.353 80.3703 10.109C80.7903 10.853 81.0003 11.717 81.0003 12.701ZM76.1403 9.533C75.4203 9.533 74.8083 9.749 74.3043 10.181C73.8123 10.601 73.5123 11.165 73.4043 11.873L78.8583 11.873C78.7623 11.177 78.4683 10.613 77.9763 10.181C77.4843 9.749 76.8723 9.533 76.1403 9.533ZM88.7892 7.733C89.7252 7.733 90.5592 7.937 91.2912 8.345C92.0352 8.753 92.6172 9.329 93.0372 10.073C93.4572 10.817 93.6672 11.675 93.6672 12.647C93.6672 13.619 93.4572 14.483 93.0372 15.239C92.6172 15.983 92.0352 16.559 91.2912 16.967C90.5592 17.375 89.7252 17.579 88.7892 17.579C87.4932 17.579 86.4672 17.147 85.7112 16.283L85.7112 20.945L83.4612 20.945L83.4612 7.841L85.6032 7.841L85.6032 9.101C85.9752 8.645 86.4312 8.303 86.9712 8.075C87.5232 7.847 88.1292 7.733 88.7892 7.733ZM88.5372 15.653C89.3652 15.653 90.0432 15.377 90.5712 14.825C91.1112 14.273 91.3812 13.547 91.3812 12.647C91.3812 11.747 91.1112 11.021 90.5712 10.469C90.0432 9.917 89.3652 9.641 88.5372 9.641C87.9972 9.641 87.5112 9.767 87.0792 10.019C86.6472 10.259 86.3052 10.607 86.0532 11.063C85.8012 11.519 85.6752 12.047 85.6752 12.647C85.6752 13.247 85.8012 13.775 86.0532 14.231C86.3052 14.687 86.6472 15.041 87.0792 15.293C87.5112 15.533 87.9972 15.653 88.5372 15.653ZM96.4147 17.579C96.0068 17.579 95.6588 17.441 95.3708 17.165C95.0827 16.877 94.9388 16.517 94.9388 16.085C94.9388 15.641 95.0768 15.281 95.3528 15.005C95.6407 14.729 95.9948 14.591 96.4147 14.591C96.8347 14.591 97.1827 14.729 97.4587 15.005C97.7467 15.281 97.8907 15.641 97.8907 16.085C97.8907 16.517 97.7467 16.877 97.4587 17.165C97.1708 17.441 96.8228 17.579 96.4147 17.579Z" fill="rgb(255,255,255)" fill-rule="nonzero" />
</svg>
