<svg viewBox="0 0 24 24" xmlns="http://www.w3.org/2000/svg" xmlns:xlink="http://www.w3.org/1999/xlink" width="24.000000" height="24.000000" fill="none">
	<rect id="shopping-bag-line 1" width="24.000000" height="24.000000" x="0.000000" y="0.000000" fill="rgb(255,255,255)" fill-opacity="0" />
	<path id="Vector" d="M0 0L24 0L24 24L0 24L0 0Z" fill-rule="nonzero" />
	<path id="Vector" d="M7 8L7 6C7 4.67916 7.07093 2.93397 8 2C8.92908 1.06603 10.6861 1 12 1C13.3139 1 15.0709 1.06603 16 2C16.9291 2.93397 17 4.67916 17 6L17 8L20 8C20.2628 8 20.8142 7.81321 21 8C21.1858 8.18679 21 8.73583 21 9L21 21C21 21.2642 21.1858 21.8132 21 22C20.8142 22.1868 20.2628 22 20 22L4 22C3.73722 22 3.18582 22.1868 3 22C2.81419 21.8132 3 21.2642 3 21L3 9C3 8.73583 2.81419 8.18679 3 8C3.18582 7.81321 3.73722 8 4 8L7 8ZM7 10L5 10L5 20L19 20L19 10L17 10L17 12L15 12L15 10L9 10L9 12L7 12L7 10ZM9 8L15 8L15 6C15 5.2075 14.5575 4.56038 14 4C13.4426 3.43962 12.7884 3 12 3C11.2117 3 10.5575 3.43962 10 4C9.44256 4.56038 9 5.2075 9 6L9 8Z" fill="rgb(196,196,196)" fill-rule="nonzero" />
</svg>
