<svg viewBox="0 0 25 25" xmlns="http://www.w3.org/2000/svg" xmlns:xlink="http://www.w3.org/1999/xlink" width="25.000000" height="25.000000" fill="none">
	<rect id="jam:shopping-cart" width="25.000000" height="25.000000" x="0.000000" y="0.000000" fill="rgb(255,255,255)" fill-opacity="0" transform="matrix(-1,0,0,1,25,0)" />
	<path id="Vector" d="M7.25936 16.6667C6.70683 16.6667 6.17692 16.4472 5.78622 16.0565C5.39552 15.6658 5.17603 15.1359 5.17603 14.5833C5.17603 14.0308 5.39552 13.5009 5.78622 13.1102C6.17692 12.7195 6.70683 12.5 7.25936 12.5C7.8119 12.5 8.3418 12.7195 8.7325 13.1102C9.1232 13.5009 9.3427 14.0308 9.3427 14.5833C9.3427 15.1359 9.1232 15.6658 8.7325 16.0565C8.3418 16.4472 7.8119 16.6667 7.25936 16.6667ZM14.551 16.6667C13.9985 16.6667 13.4686 16.4472 13.0779 16.0565C12.6872 15.6658 12.4677 15.1359 12.4677 14.5833C12.4677 14.0308 12.6872 13.5009 13.0779 13.1102C13.4686 12.7195 13.9985 12.5 14.551 12.5C15.1036 12.5 15.6335 12.7195 16.0242 13.1102C16.4149 13.5009 16.6344 14.0308 16.6344 14.5833C16.6344 15.1359 16.4149 15.6658 16.0242 16.0565C15.6335 16.4472 15.1036 16.6667 14.551 16.6667ZM0.969779 2.00312C0.709739 1.99474 0.463155 1.88554 0.282173 1.69863C0.101191 1.51171 -4.62593e-16 1.26174 0 1.00156C-4.62593e-16 0.741387 0.101191 0.491411 0.282173 0.304497C0.463155 0.117584 0.709739 0.0083873 0.969779 0L2.16874 0C3.10832 0 3.92082 0.652083 4.12499 1.56875L5.4302 7.44583C5.63436 8.3625 6.44686 9.01458 7.38645 9.01458L15.2114 9.01458L16.7135 3.00417L6.97915 3.00417C6.72156 2.99241 6.47841 2.88181 6.30028 2.69537C6.12215 2.50892 6.02275 2.26099 6.02275 2.00312C6.02275 1.74526 6.12215 1.49733 6.30028 1.31088C6.47841 1.12444 6.72156 1.01384 6.97915 1.00208L16.7135 1.00208C17.018 1.00199 17.3186 1.07133 17.5923 1.20483C17.866 1.33832 18.1056 1.53246 18.293 1.77248C18.4804 2.01251 18.6106 2.29209 18.6737 2.59C18.7369 2.8879 18.7312 3.19627 18.6573 3.49167L17.1552 9.5C17.0469 9.93354 16.7968 10.3184 16.4446 10.5934C16.0924 10.8684 15.6583 11.0178 15.2114 11.0177L7.38645 11.0177C6.47477 11.0178 5.59032 10.707 4.87917 10.1366C4.16801 9.56612 3.67268 8.77019 3.47499 7.88021L2.16874 2.00312L0.969779 2.00312Z" fill="rgb(255,255,255)" fill-rule="nonzero" transform="matrix(-1,0,0,1,21.8428,4.16663)" />
</svg>
